<svg xmlns="http://www.w3.org/2000/svg">
  <symbol id="facebook" viewBox="0 0 447.95 446.49">
    <path fill="#fff" d="M309,17c92.36,38.58,175.7,162.74,119,294-32.06,74.23-93.11,118.8-185,134-37.79,6.25-75.84-5.15-100-15C51.33,392.64-38.23,278.13,14,145,68,7.28,211-23.94,309,17Z" transform="translate(1.45 -0.29)"/>
    <path fill="#3456a2" d="M186,174H159v48h27V359h57V222h39l5-48-44-1c-.39-14.16-1-30.38,4-39,10-2.73,25.93-2.12,39-2V85C204.14,83.65,184.66,91.44,186,174Z" transform="translate(1.45 -0.29)"/>
  </symbol>
</svg>
